<svg width="56" height="56" viewBox="0 0 56 56" fill="none" xmlns="http://www.w3.org/2000/svg">
<g filter="url(#filter0_d_1_13654)">
<rect x="2" y="1" width="52" height="52" rx="26" fill="#F04438"/>
<path fill-rule="evenodd" clip-rule="evenodd" d="M33.8333 25.3069H35.1933C35.3044 25.3069 35.36 25.3069 35.4072 25.288C35.449 25.2714 35.4859 25.2444 35.5147 25.2095C35.5473 25.1701 35.5649 25.1167 35.6 25.0098L36.1037 23.4786C36.2705 22.9717 36.3539 22.7182 36.329 22.4832C36.3071 22.276 36.2268 22.0797 36.0977 21.9175C35.9513 21.7335 35.7155 21.614 35.2438 21.375L28.7669 18.0936C28.4857 17.9511 28.3451 17.8799 28.1976 17.8519C28.067 17.827 27.933 17.827 27.8024 17.8519C27.6549 17.8799 27.5143 17.9511 27.2331 18.0936L20.7562 21.375C20.2845 21.614 20.0487 21.7335 19.9022 21.9175C19.7732 22.0797 19.6929 22.276 19.671 22.4832C19.6461 22.7182 19.7295 22.9717 19.8962 23.4786L20.4 25.0098C20.4351 25.1167 20.4527 25.1701 20.4853 25.2095C20.514 25.2444 20.551 25.2714 20.5927 25.288C20.64 25.3069 20.6956 25.3069 20.8067 25.3069H22.1667V31.8227H21.8366C21.3578 31.8227 21.1185 31.8227 20.9194 31.9075C20.7436 31.9823 20.5908 32.1032 20.4766 32.2578C20.3471 32.433 20.2891 32.6682 20.173 33.1388L19.9586 34.0076C19.777 34.7435 19.6862 35.1115 19.7746 35.4013C19.8521 35.6553 20.0188 35.8717 20.2432 36.0094C20.4993 36.1666 20.8736 36.1666 21.6222 36.1666H34.3778C35.1264 36.1666 35.5007 36.1666 35.7567 36.0094C35.9811 35.8717 36.1479 35.6553 36.2253 35.4013C36.3137 35.1115 36.2229 34.7435 36.0414 34.0076L35.827 33.1388C35.7109 32.6683 35.6529 32.433 35.5234 32.2578C35.4092 32.1032 35.2563 31.9823 35.0806 31.9075C34.8815 31.8227 34.6421 31.8227 34.1634 31.8227H33.8333V25.3069ZM32.1667 25.3069H28.8333V31.8227H32.1667V25.3069ZM27.1667 31.8227V25.3069H23.8333V31.8227H27.1667Z" fill="white"/>
</g>
<defs>
<filter id="filter0_d_1_13654" x="0" y="0" width="56" height="56" filterUnits="userSpaceOnUse" color-interpolation-filters="sRGB">
<feFlood flood-opacity="0" result="BackgroundImageFix"/>
<feColorMatrix in="SourceAlpha" type="matrix" values="0 0 0 0 0 0 0 0 0 0 0 0 0 0 0 0 0 0 127 0" result="hardAlpha"/>
<feOffset dy="1"/>
<feGaussianBlur stdDeviation="1"/>
<feComposite in2="hardAlpha" operator="out"/>
<feColorMatrix type="matrix" values="0 0 0 0 0.0627451 0 0 0 0 0.0941176 0 0 0 0 0.156863 0 0 0 0.04 0"/>
<feBlend mode="normal" in2="BackgroundImageFix" result="effect1_dropShadow_1_13654"/>
<feBlend mode="normal" in="SourceGraphic" in2="effect1_dropShadow_1_13654" result="shape"/>
</filter>
</defs>
</svg>
