<svg width="56" height="56" viewBox="0 0 56 56" fill="none" xmlns="http://www.w3.org/2000/svg">
<g filter="url(#filter0_d_1_13665)">
<rect x="2" y="1" width="52" height="52" rx="26" fill="#437EF7"/>
<path d="M19.6667 22.8333H36.3333C36.3326 22.0096 36.3222 21.5779 36.1517 21.2433C35.9919 20.9297 35.7369 20.6747 35.4233 20.5149C35.0668 20.3333 34.6001 20.3333 33.6667 20.3333H22.3333C21.3999 20.3333 20.9332 20.3333 20.5767 20.5149C20.2631 20.6747 20.0081 20.9297 19.8483 21.2433C19.6778 21.5779 19.6673 22.0096 19.6667 22.8333Z" fill="white"/>
<path fill-rule="evenodd" clip-rule="evenodd" d="M36.3333 24.4999H19.6667V30.9999C19.6667 31.9333 19.6667 32.4001 19.8483 32.7566C20.0081 33.0702 20.2631 33.3251 20.5767 33.4849C20.9332 33.6666 21.3999 33.6666 22.3333 33.6666H33.6667C34.6001 33.6666 35.0668 33.6666 35.4233 33.4849C35.7369 33.3251 35.9919 33.0702 36.1517 32.7566C36.3333 32.4001 36.3333 31.9333 36.3333 30.9999V24.4999ZM22.1667 30.3333C22.1667 29.873 22.5398 29.4999 23 29.4999H26.3333C26.7936 29.4999 27.1667 29.873 27.1667 30.3333C27.1667 30.7935 26.7936 31.1666 26.3333 31.1666H23C22.5398 31.1666 22.1667 30.7935 22.1667 30.3333ZM29.6667 29.4999C29.2064 29.4999 28.8333 29.873 28.8333 30.3333C28.8333 30.7935 29.2064 31.1666 29.6667 31.1666H33C33.4602 31.1666 33.8333 30.7935 33.8333 30.3333C33.8333 29.873 33.4602 29.4999 33 29.4999H29.6667Z" fill="white"/>
</g>
<defs>
<filter id="filter0_d_1_13665" x="0" y="0" width="56" height="56" filterUnits="userSpaceOnUse" color-interpolation-filters="sRGB">
<feFlood flood-opacity="0" result="BackgroundImageFix"/>
<feColorMatrix in="SourceAlpha" type="matrix" values="0 0 0 0 0 0 0 0 0 0 0 0 0 0 0 0 0 0 127 0" result="hardAlpha"/>
<feOffset dy="1"/>
<feGaussianBlur stdDeviation="1"/>
<feComposite in2="hardAlpha" operator="out"/>
<feColorMatrix type="matrix" values="0 0 0 0 0.0627451 0 0 0 0 0.0941176 0 0 0 0 0.156863 0 0 0 0.04 0"/>
<feBlend mode="normal" in2="BackgroundImageFix" result="effect1_dropShadow_1_13665"/>
<feBlend mode="normal" in="SourceGraphic" in2="effect1_dropShadow_1_13665" result="shape"/>
</filter>
</defs>
</svg>
