<svg width="49" height="48" viewBox="0 0 49 48" fill="none" xmlns="http://www.w3.org/2000/svg">
<rect x="0.166626" width="48" height="48" rx="24" fill="#F5FAFF"/>
<path d="M10.8333 20.2667C10.8333 18.7732 10.8333 18.0265 11.124 17.456C11.3796 16.9543 11.7876 16.5463 12.2893 16.2906C12.8598 16 13.6065 16 15.1 16H25.2333C26.7268 16 27.4735 16 28.044 16.2906C28.5457 16.5463 28.9537 16.9543 29.2093 17.456C29.5 18.0265 29.5 18.7732 29.5 20.2667V27.7333C29.5 29.2268 29.5 29.9735 29.2093 30.544C28.9537 31.0457 28.5457 31.4537 28.044 31.7094C27.4735 32 26.7268 32 25.2333 32H15.1C13.6065 32 12.8598 32 12.2893 31.7094C11.7876 31.4537 11.3796 31.0457 11.124 30.544C10.8333 29.9735 10.8333 29.2268 10.8333 27.7333V20.2667Z" fill="#437EF7"/>
<path d="M36.1666 23.253V24.747C36.1666 26.7456 36.1666 27.7449 35.7483 28.4009C35.382 28.9751 34.81 29.3874 34.1494 29.5532C33.4333 29.7331 32.5429 29.4576 30.8333 28.8888V19.1112C32.5429 18.5424 33.4333 18.2669 34.1494 18.4468C34.81 18.6126 35.382 19.0249 35.7483 19.5991C36.1666 20.2551 36.1666 21.2544 36.1666 23.253Z" fill="#437EF7"/>
</svg>
