<svg width="49" height="48" viewBox="0 0 49 48" fill="none" xmlns="http://www.w3.org/2000/svg">
<rect x="0.5" width="48" height="48" rx="24" fill="#F5FAFF"/>
<path d="M12.5 12C11.7636 12 11.1666 12.597 11.1666 13.3333C11.1666 14.0697 11.7636 14.6667 12.5 14.6667H13.9993L15.6698 27.1953C15.9347 29.1825 17.6299 30.6667 19.6347 30.6667H31.228C33.0564 30.6667 34.6521 29.4268 35.1039 27.6551L36.9439 20.4403C37.5888 17.9112 35.678 15.4519 33.0679 15.4519H16.7942L16.6425 14.3142C16.4659 12.9894 15.3358 12 13.9993 12H12.5Z" fill="#437EF7"/>
<path d="M15.1666 34.6667C15.1666 33.1939 16.3605 32 17.8333 32C19.3061 32 20.5 33.1939 20.5 34.6667C20.5 36.1394 19.3061 37.3333 17.8333 37.3333C16.3605 37.3333 15.1666 36.1394 15.1666 34.6667Z" fill="#437EF7"/>
<path d="M32.5 32C31.0272 32 29.8333 33.1939 29.8333 34.6667C29.8333 36.1394 31.0272 37.3333 32.5 37.3333C33.9727 37.3333 35.1666 36.1394 35.1666 34.6667C35.1666 33.1939 33.9727 32 32.5 32Z" fill="#437EF7"/>
</svg>
