<svg width="25" height="24" viewBox="0 0 25 24" fill="none" xmlns="http://www.w3.org/2000/svg">
<path fill-rule="evenodd" clip-rule="evenodd" d="M2.27363 0C1.29432 0 0.499878 0.77025 0.499878 1.71919V22.2814C0.499878 23.2304 1.29441 24 2.27363 24H22.7261C23.7058 24 24.4999 23.2303 24.4999 22.2811V1.71919C24.4999 0.77025 23.7058 0 22.7261 0H2.27363ZM7.79317 9.2801V20.085H4.2018V9.2801H7.79317ZM8.02989 5.93856C8.02989 6.97544 7.25036 7.80513 5.99824 7.80513L5.99796 7.80503H5.97471C4.76936 7.80503 3.99011 6.97535 3.99011 5.93847C3.99011 4.87806 4.79289 4.07153 6.02205 4.07153C7.25036 4.07153 8.00646 4.87806 8.02989 5.93856ZM13.3721 20.085H9.78105L9.78096 20.0853C9.78096 20.0853 9.82811 10.2941 9.78124 9.28047H13.3724V10.8099C13.8498 10.0738 14.7042 9.02678 16.6091 9.02678C18.9719 9.02678 20.7434 10.5711 20.7434 13.8898V20.085H17.1524V14.3053C17.1524 12.8526 16.6324 11.8619 15.3332 11.8619C14.3409 11.8619 13.75 12.53 13.4905 13.1755C13.3956 13.4058 13.3721 13.7292 13.3721 14.0517V20.085Z" fill="white"/>
</svg>
