<svg width="49" height="48" viewBox="0 0 49 48" fill="none" xmlns="http://www.w3.org/2000/svg">
<rect x="0.833313" width="48" height="48" rx="24" fill="#F5FAFF"/>
<path d="M31.8905 22.2763L23.6874 30.4793C22.4322 28.2473 20.5861 26.4013 18.3541 25.146L28.6581 14.8419C29.1862 14.3139 29.4502 14.0499 29.7546 13.951C30.0224 13.864 30.3109 13.864 30.5787 13.951C30.8831 14.0499 31.1471 14.3139 31.6751 14.842L33.9915 17.1583C34.5195 17.6863 34.7835 17.9503 34.8824 18.2548C34.9694 18.5226 34.9694 18.811 34.8824 19.0788C34.7835 19.3833 34.5195 19.6473 33.9915 20.1753L33.7761 20.3906L35.9714 22.5859C36.7524 23.367 36.7524 24.6333 35.9714 25.4143L32.4428 28.9429C31.9221 29.4636 31.0779 29.4636 30.5572 28.9429C30.0365 28.4222 30.0365 27.578 30.5572 27.0573L33.6144 24.0001L31.8905 22.2763Z" fill="#437EF7"/>
<path d="M16.5148 27.6223L15.5159 30.6191C15.0816 31.9219 14.8645 32.5733 15.0189 33.0064C15.1534 33.3834 15.45 33.6801 15.827 33.8145C16.2602 33.9689 16.9116 33.7518 18.2143 33.3176L21.2111 32.3186C21.3621 32.2683 21.4814 32.2285 21.581 32.1933C20.497 30.067 18.7664 28.3364 16.6402 27.2524C16.6049 27.3521 16.5651 27.4714 16.5148 27.6223Z" fill="#437EF7"/>
</svg>
