<svg width="56" height="56" viewBox="0 0 56 56" fill="none" xmlns="http://www.w3.org/2000/svg">
<g filter="url(#filter0_d_1_13670)">
<rect x="2" y="1" width="52" height="52" rx="26" fill="#FFAE43"/>
<path d="M27.1667 17.8706C25.261 18.0423 23.5236 18.7972 22.1341 19.9555L27.1667 24.9881V17.8706Z" fill="white"/>
<path d="M20.9556 21.134C19.6305 22.7236 18.8333 24.7687 18.8333 26.9999C18.8333 29.2311 19.6305 31.2762 20.9556 32.8658L26.8215 26.9999L20.9556 21.134Z" fill="white"/>
<path d="M22.1341 34.0443L28.3452 27.8332C28.6577 27.5207 28.8333 27.0968 28.8333 26.6547V17.8706C33.5054 18.2916 37.1667 22.2182 37.1667 26.9999C37.1667 32.0625 33.0626 36.1666 28 36.1666C25.7687 36.1666 23.7237 35.3694 22.1341 34.0443Z" fill="white"/>
</g>
<defs>
<filter id="filter0_d_1_13670" x="0" y="0" width="56" height="56" filterUnits="userSpaceOnUse" color-interpolation-filters="sRGB">
<feFlood flood-opacity="0" result="BackgroundImageFix"/>
<feColorMatrix in="SourceAlpha" type="matrix" values="0 0 0 0 0 0 0 0 0 0 0 0 0 0 0 0 0 0 127 0" result="hardAlpha"/>
<feOffset dy="1"/>
<feGaussianBlur stdDeviation="1"/>
<feComposite in2="hardAlpha" operator="out"/>
<feColorMatrix type="matrix" values="0 0 0 0 0.0627451 0 0 0 0 0.0941176 0 0 0 0 0.156863 0 0 0 0.04 0"/>
<feBlend mode="normal" in2="BackgroundImageFix" result="effect1_dropShadow_1_13670"/>
<feBlend mode="normal" in="SourceGraphic" in2="effect1_dropShadow_1_13670" result="shape"/>
</filter>
</defs>
</svg>
