<svg width="25" height="24" viewBox="0 0 25 24" fill="none" xmlns="http://www.w3.org/2000/svg">
<path d="M17.6002 8.66348C19.1436 9.77066 21.0343 10.4221 23.0763 10.4221V6.47863C22.6898 6.47871 22.3044 6.43827 21.9263 6.35788V9.46195C19.8844 9.46195 17.994 8.81051 16.4502 7.70342V15.7509C16.4502 19.7766 13.1983 23.0399 9.1871 23.0399C7.69042 23.0399 6.29932 22.5858 5.14374 21.8071C6.46265 23.1604 8.30197 24 10.3369 24C14.3483 24 17.6004 20.7367 17.6004 16.7108V8.66348H17.6002ZM19.0189 4.68501C18.2302 3.82024 17.7123 2.70269 17.6002 1.46719V0.959976H16.5104C16.7847 2.5303 17.7204 3.87189 19.0189 4.68501ZM7.68083 18.7178C7.24015 18.138 7.00201 17.4286 7.00308 16.6993C7.00308 14.858 8.49048 13.3651 10.3255 13.3651C10.6675 13.3651 11.0075 13.4176 11.3334 13.5214V9.48979C10.9525 9.4374 10.5681 9.41516 10.1839 9.42332V12.5613C9.85771 12.4575 9.51761 12.4048 9.17553 12.4052C7.34048 12.4052 5.85315 13.8979 5.85315 15.7394C5.85315 17.0414 6.59661 18.1687 7.68083 18.7178Z" fill="white"/>
<path d="M16.4502 7.70334C17.994 8.81043 19.8844 9.46186 21.9263 9.46186V6.35779C20.7865 6.11415 19.7775 5.51642 19.0189 4.68501C17.7203 3.8718 16.7848 2.53021 16.5104 0.959976H13.6479V16.7106C13.6414 18.5468 12.1565 20.0336 10.3254 20.0336C9.24634 20.0336 8.28771 19.5174 7.68059 18.7178C6.59646 18.1687 5.853 17.0413 5.853 15.7394C5.853 13.8981 7.34032 12.4052 9.17538 12.4052C9.52697 12.4052 9.86584 12.4602 10.1837 12.5614V9.4234C6.24298 9.50511 3.07367 12.7365 3.07367 16.7107C3.07367 18.6946 3.8629 20.4931 5.14383 21.8071C6.29942 22.5858 7.69052 23.04 9.18719 23.04C13.1985 23.04 16.4503 19.7766 16.4503 15.7509V7.70334H16.4502Z" fill="white"/>
<path d="M21.9263 6.35782V5.5185C20.8985 5.52006 19.8909 5.2312 19.0189 4.68495C19.7908 5.53308 20.8073 6.11788 21.9263 6.35782ZM16.5105 0.959999C16.4843 0.809927 16.4642 0.658866 16.4503 0.507229V1.52588e-05H12.4978V15.7508C12.4915 17.5868 11.0067 19.0736 9.1754 19.0736C8.63777 19.0736 8.13015 18.9455 7.68061 18.7179C8.28773 19.5175 9.24636 20.0336 10.3254 20.0336C12.1564 20.0336 13.6415 18.5469 13.6479 16.7107V0.959999H16.5105ZM10.1839 9.42342V8.52991C9.85364 8.48461 9.52068 8.46187 9.1873 8.46204C5.17568 8.46196 1.92377 11.7254 1.92377 15.7508C1.92377 18.2745 3.20183 20.4987 5.14394 21.807C3.86301 20.493 3.07377 18.6944 3.07377 16.7106C3.07377 12.7365 6.243 9.50513 10.1839 9.42342Z" fill="white"/>
</svg>
