<svg width="25" height="24" viewBox="0 0 25 24" fill="none" xmlns="http://www.w3.org/2000/svg">
<path d="M14.0423 12C14.0423 15.666 11.0179 18.6429 7.27116 18.6429C3.52445 18.6429 0.5 15.666 0.5 12C0.5 8.33397 3.52445 5.35715 7.27116 5.35715C11.0179 5.35715 14.0423 8.33397 14.0423 12ZM21.4605 12C21.4605 15.4461 19.9408 18.2469 18.0749 18.2469C16.2091 18.2469 14.6893 15.4461 14.6893 12C14.6893 8.55393 16.2091 5.75308 18.0749 5.75308C19.9408 5.75308 21.4605 8.53927 21.4605 12ZM24.5 12C24.5 15.0941 23.9734 17.6017 23.3113 17.6017C22.6492 17.6017 22.1226 15.0941 22.1226 12C22.1226 8.90587 22.6492 6.3983 23.3113 6.3983C23.9734 6.3983 24.5 8.90587 24.5 12Z" fill="white"/>
</svg>
