<svg width="25" height="24" viewBox="0 0 25 24" fill="none" xmlns="http://www.w3.org/2000/svg">
<path fill-rule="evenodd" clip-rule="evenodd" d="M7.39692 21.9307C7.05227 21.9157 6.18579 21.764 5.30777 21.5332C4.43656 21.3082 3.8414 21.0078 3.8414 21.0078C3.51393 20.8438 3.39442 20.5851 3.34853 20.3178C3.36253 20.323 3.23758 19.4783 3.23758 17.8444C3.23758 16.604 3.30492 15.9394 3.3357 15.7295C3.3687 15.5085 3.48016 15.3275 3.77756 15.3412C4.07499 15.3552 4.47932 15.3481 5.43023 15.5141C6.56415 15.7167 7.11978 15.8878 7.38947 15.9771C7.63338 16.0612 7.89019 16.245 7.9398 16.5892C7.9398 16.5892 8.07114 17.4938 8.06918 18.8653C8.07113 19.9754 7.98802 21.0752 7.95021 21.4308C7.91496 21.7601 7.74157 21.9458 7.39692 21.9307ZM12.5308 18.1162C12.5305 17.92 12.4475 17.7372 12.2877 17.5925L9.35007 14.8738C9.01298 14.5403 8.61189 14.3324 8.12389 14.2354C8.12389 14.2354 7.0156 13.9772 5.36577 13.7162C3.71591 13.4552 3.28506 13.4847 3.28506 13.4847C1.82234 13.4847 1.76962 14.9567 1.75452 15.1053C1.71839 15.4606 1.63245 16.4021 1.63245 17.7128C1.63245 19.2596 1.70217 20.3314 1.78635 20.9866C1.91431 21.9865 2.72805 22.4554 3.1026 22.633C3.19753 22.6778 4.21387 23.0839 5.24444 23.3838C5.939 23.5863 7.05199 23.8823 7.57339 23.9601C7.7447 23.986 8.75186 24.1493 9.22765 23.554L12.3493 19.7343C12.4787 19.5574 12.5308 19.4854 12.5308 19.2146V18.1162ZM19.3535 12.5444C18.9107 12.502 18.4653 12.4929 18.0211 12.517L11.0002 13.1373C11.0002 13.1373 10.5348 13.2043 10.2697 13.5381C10.0646 13.7964 10.0214 14.0119 10.0214 14.0119C10.1143 14.099 10.1519 14.1347 10.2031 14.179L12.9755 16.8479C13.2855 17.1352 13.4655 17.4147 13.4655 17.833V19.3363C13.4655 19.6036 13.441 19.8282 13.2836 20.0298L11.7967 21.9362L13.2927 22.4839C13.8604 22.6605 14.3876 22.6554 14.9802 22.5703L21.4202 21.1749C21.4202 21.1749 22.5814 20.8833 22.5816 19.8422V16.1385C22.5816 16.067 22.5377 16.0055 22.4587 16.0206L18.3465 16.7835C18.193 16.8129 18.0969 16.937 18.0969 17.0761V18.8702C18.0969 18.9774 18.229 19.0638 18.3465 19.0389L19.6351 18.755C19.7021 18.7376 19.7538 18.784 19.7564 18.8702V19.449C19.7503 19.5681 19.6512 19.6503 19.5115 19.6805L18.0531 19.9758C18.0543 19.9715 17.0743 20.2113 17.0743 19.223V16.9347C17.0743 15.9361 17.8414 15.835 17.8414 15.835L22.3692 15.0111C22.4871 14.9901 22.5816 14.8914 22.5816 14.7846V13.8525C22.5773 12.8233 21.5246 12.7596 21.5246 12.7596L19.3535 12.5444ZM10.9383 2.83558C12.6223 2.90319 13.8988 4.41252 13.8112 6.24803C13.7141 8.0783 12.2546 9.53817 10.6322 9.47511C8.94863 9.40748 7.72831 7.88335 7.81548 6.04817C7.91263 4.21793 9.31596 2.77252 10.9383 2.83558ZM17.722 7.12886C17.791 5.87743 18.7371 4.88835 19.854 4.92845C20.9158 4.97346 21.7636 6.03601 21.7068 7.24676C21.6383 8.5018 20.6774 9.45325 19.563 9.41974C18.4984 9.36776 17.6657 8.34356 17.722 7.12886ZM23.3675 7.29242C23.3645 4.82225 21.4173 2.83598 19.0204 2.83598C17.6213 2.83598 16.352 3.53489 15.5305 4.57226C14.8994 1.93552 12.5673 -0.00729417 9.77523 2.05861e-05C6.44299 0.0088144 3.76393 2.72623 3.77506 6.07702C3.78621 9.46183 6.47964 12.2119 9.77523 12.2025C9.96503 12.2004 19.0464 11.6247 19.0204 11.6242C21.6378 11.4109 23.3809 9.70515 23.3675 7.29242Z" fill="white"/>
</svg>
