<svg width="56" height="56" viewBox="0 0 56 56" fill="none" xmlns="http://www.w3.org/2000/svg">
<g filter="url(#filter0_d_1_13659)">
<rect x="2" y="1" width="52" height="52" rx="26" fill="#5DC264"/>
<path d="M29.6667 26.6666C29.6667 26.1999 29.6667 25.9665 29.7575 25.7883C29.8374 25.6315 29.9649 25.504 30.1217 25.4241C30.2999 25.3333 30.5333 25.3333 31 25.3333H35C35.4667 25.3333 35.7001 25.3333 35.8783 25.4241C36.0351 25.504 36.1626 25.6315 36.2425 25.7883C36.3333 25.9665 36.3333 26.1999 36.3333 26.6666V27.3333C36.3333 27.8 36.3333 28.0333 36.2425 28.2116C36.1626 28.3684 36.0351 28.4959 35.8783 28.5758C35.7001 28.6666 35.4667 28.6666 35 28.6666H31C30.5333 28.6666 30.2999 28.6666 30.1217 28.5758C29.9649 28.4959 29.8374 28.3684 29.7575 28.2116C29.6667 28.0333 29.6667 27.8 29.6667 27.3333V26.6666Z" fill="white"/>
<path d="M32 20.3333H22.3333C21.3999 20.3333 20.9332 20.3333 20.5767 20.5149C20.2631 20.6747 20.0081 20.9297 19.8483 21.2433C19.6667 21.5998 19.6667 22.0665 19.6667 22.9999V30.9999C19.6667 31.9333 19.6667 32.4001 19.8483 32.7566C20.0081 33.0702 20.2631 33.3251 20.5767 33.4849C20.9332 33.6666 21.3999 33.6666 22.3333 33.6666H32C32.9334 33.6666 33.4001 33.6666 33.7567 33.4849C34.0703 33.3251 34.3252 33.0702 34.485 32.7566C34.6667 32.4001 34.6667 31.9333 34.6667 30.9999V30.3332L30.9615 30.3333C30.7629 30.3333 30.5258 30.3334 30.317 30.3164C30.0749 30.2966 29.7283 30.2458 29.365 30.0608C28.8946 29.8211 28.5122 29.4386 28.2725 28.9682C28.0874 28.605 28.0367 28.2583 28.0169 28.0163C27.9998 27.8074 27.9999 27.5703 28 27.3718V26.628C27.9999 26.4295 27.9998 26.1924 28.0169 25.9835C28.0367 25.7415 28.0874 25.3948 28.2725 25.0316C28.5122 24.5612 28.8946 24.1787 29.365 23.9391C29.7283 23.754 30.0749 23.7032 30.317 23.6835C30.5258 23.6664 30.7629 23.6665 30.9615 23.6666L34.6667 23.6666V22.9999C34.6667 22.0665 34.6667 21.5998 34.485 21.2433C34.3252 20.9297 34.0703 20.6747 33.7567 20.5149C33.4001 20.3333 32.9334 20.3333 32 20.3333Z" fill="white"/>
</g>
<defs>
<filter id="filter0_d_1_13659" x="0" y="0" width="56" height="56" filterUnits="userSpaceOnUse" color-interpolation-filters="sRGB">
<feFlood flood-opacity="0" result="BackgroundImageFix"/>
<feColorMatrix in="SourceAlpha" type="matrix" values="0 0 0 0 0 0 0 0 0 0 0 0 0 0 0 0 0 0 127 0" result="hardAlpha"/>
<feOffset dy="1"/>
<feGaussianBlur stdDeviation="1"/>
<feComposite in2="hardAlpha" operator="out"/>
<feColorMatrix type="matrix" values="0 0 0 0 0.0627451 0 0 0 0 0.0941176 0 0 0 0 0.156863 0 0 0 0.04 0"/>
<feBlend mode="normal" in2="BackgroundImageFix" result="effect1_dropShadow_1_13659"/>
<feBlend mode="normal" in="SourceGraphic" in2="effect1_dropShadow_1_13659" result="shape"/>
</filter>
</defs>
</svg>
